<svg width="16" height="16" viewBox="0 0 16 16" fill="none" xmlns="http://www.w3.org/2000/svg">
<path d="M6.42472 2.83279C6.50997 2.61128 6.82337 2.61128 6.90861 2.83279L7.61381 4.66525C8.27214 6.37593 9.62406 7.72785 11.3347 8.38618L13.1672 9.09138C13.3887 9.17662 13.3887 9.49002 13.1672 9.57527L11.3347 10.2805C9.62406 10.9388 8.27214 12.2907 7.61381 14.0014L6.90861 15.8339C6.82337 16.0554 6.50997 16.0554 6.42472 15.8339L5.71952 14.0014C5.06119 12.2907 3.70927 10.9388 1.99859 10.2805L0.166135 9.57527C-0.0553784 9.49002 -0.0553782 9.17662 0.166135 9.09138L1.99859 8.38618C3.70927 7.72785 5.06119 6.37593 5.71952 4.66525L6.42472 2.83279Z" fill="#6056D6"/>
<path d="M13.2366 0.0664539C13.2707 -0.0221514 13.396 -0.0221513 13.4301 0.066454L13.7122 0.799438C13.9755 1.48371 14.5163 2.02448 15.2006 2.28781L15.9336 2.56989C16.0222 2.60399 16.0222 2.72935 15.9336 2.76345L15.2006 3.04552C14.5163 3.30886 13.9755 3.84962 13.7122 4.5339L13.4301 5.26688C13.396 5.35548 13.2707 5.35548 13.2366 5.26688L12.9545 4.5339C12.6912 3.84962 12.1504 3.30886 11.4661 3.04552L10.7331 2.76345C10.6445 2.72935 10.6445 2.60399 10.7331 2.56989L11.4661 2.28781C12.1504 2.02448 12.6912 1.48371 12.9545 0.799438L13.2366 0.0664539Z" fill="#6056D6"/>
</svg>
