<svg width="24" height="24" viewBox="0 0 24 24" fill="none" xmlns="http://www.w3.org/2000/svg">
<path d="M4.80005 9.60001V10.4C4.80005 14.3765 8.0236 17.6 12 17.6C15.9765 17.6 19.2001 14.3765 19.2001 10.4V9.60001" stroke="black" stroke-width="2" stroke-linecap="round"/>
<rect x="9.6001" y="2.39999" width="4.8" height="10.4" rx="2.4" stroke="black" stroke-width="2"/>
<path d="M7.19995 21.6H16.8" stroke="black" stroke-width="2" stroke-linecap="round"/>
<path d="M12 21.6L12 18.4" stroke="black" stroke-width="2" stroke-linecap="round"/>
<path d="M19.2004 8.60019C19.7525 8.6004 20.2004 9.04803 20.2004 9.60019V10.4C20.2004 14.59 17.057 18.0432 13.0002 18.5367V20.6002H16.8C17.3523 20.6002 17.8 21.0479 17.8 21.6002C17.7999 22.1524 17.3523 22.6002 16.8 22.6002H7.20044C6.64822 22.6002 6.20054 22.1524 6.20044 21.6002C6.20044 21.0479 6.64815 20.6002 7.20044 20.6002H11.0002V18.5367C6.94326 18.0434 3.80005 14.5902 3.80005 10.4V9.60019C3.80005 9.0479 4.24776 8.60019 4.80005 8.60019C5.35233 8.60019 5.80005 9.0479 5.80005 9.60019V10.4C5.80005 13.8242 8.57608 16.6002 12.0002 16.6002C15.4243 16.6001 18.2004 13.8241 18.2004 10.4V9.60019C18.2004 9.0479 18.6482 8.60019 19.2004 8.60019ZM12.0002 1.39999C13.8779 1.4001 15.3997 2.92268 15.3997 4.80038V10.4C15.3997 12.2777 13.8779 13.8003 12.0002 13.8004C10.1225 13.8004 8.59985 12.2778 8.59985 10.4V4.80038C8.59985 2.92262 10.1225 1.39999 12.0002 1.39999ZM12.0002 3.39999C11.227 3.39999 10.5999 4.02719 10.5999 4.80038V10.4C10.5999 11.1732 11.227 11.8004 12.0002 11.8004C12.7734 11.8003 13.3997 11.1731 13.3997 10.4V4.80038C13.3997 4.02725 12.7734 3.4001 12.0002 3.39999Z" fill="#2A2A37"/>
</svg>
