<svg width="24" height="15" viewBox="0 0 24 15" fill="none" xmlns="http://www.w3.org/2000/svg">
<path fill-rule="evenodd" clip-rule="evenodd" d="M21.6 1.6H2.4C1.95818 1.6 1.6 1.95818 1.6 2.4V12C1.6 12.4418 1.95818 12.8 2.4 12.8H21.6C22.0418 12.8 22.4 12.4418 22.4 12V2.4C22.4 1.95818 22.0418 1.6 21.6 1.6ZM2.4 0C1.07452 0 0 1.07451 0 2.4V12C0 13.3254 1.07452 14.4 2.4 14.4H21.6C22.9254 14.4 24 13.3254 24 12V2.4C24 1.07451 22.9254 0 21.6 0H2.4ZM3.2 3.2H4.8V4.8H3.2V3.2ZM8 3.2H6.4V4.8H8V3.2ZM9.6 3.2H11.2V4.8H9.6V3.2ZM14.4 3.2H12.8V4.8H14.4V3.2ZM16 3.2H17.6V4.8H16V3.2ZM20.8 3.2H19.2V4.8H20.8V3.2ZM17.6 6.4H19.2V8H17.6V6.4ZM20.8 9.6H19.2V11.2H20.8V9.6ZM14.4 6.4H16V8H14.4V6.4ZM12.8 6.4H11.2V8H12.8V6.4ZM8 6.4H9.6V8H8V6.4ZM6.4 6.4H4.8V8H6.4V6.4ZM3.2 9.6H4.8V11.2H3.2V9.6ZM17.6 9.6H6.4V11.2H17.6V9.6Z" fill="#757575"/>
</svg>
